<mxfile host="Electron" modified="2021-03-16T12:22:01.331Z" agent="5.0 (Windows NT 10.0; Win64; x64) AppleWebKit/537.36 (KHTML, like Gecko) draw.io/14.1.8 Chrome/87.0.4280.88 Electron/11.1.1 Safari/537.36" etag="qrDJxCJwNA5LtY-Lam6I" compressed="false" version="14.1.8" type="device">
  <diagram id="_Lau_7qiGBw75Esy6dt5" name="Seite-1">
    <mxGraphModel dx="782" dy="497" grid="1" gridSize="10" guides="1" tooltips="1" connect="1" arrows="1" fold="1" page="1" pageScale="1" pageWidth="827" pageHeight="1169" math="0" shadow="0">
      <root>
        <mxCell id="0" />
        <mxCell id="1" parent="0" />
        <mxCell id="Rr432nF8yquImSJ2FN4J-1" value="&lt;div&gt;&lt;b&gt;Projekt&lt;/b&gt;&lt;/div&gt;&lt;div&gt;&lt;ul&gt;&lt;li&gt;Einmaligkeit&lt;/li&gt;&lt;li&gt;Zielorientierung&lt;/li&gt;&lt;li&gt;Komplexität&lt;/li&gt;&lt;li&gt;zeitliche Befristung&lt;/li&gt;&lt;li&gt;Ressourcenbegrenzung&lt;/li&gt;&lt;li&gt;...&lt;/li&gt;&lt;/ul&gt;&lt;/div&gt;" style="rounded=1;whiteSpace=wrap;html=1;align=left;spacingLeft=15;spacingTop=9;fillColor=#dae8fc;strokeColor=#6c8ebf;" parent="1" vertex="1">
          <mxGeometry x="80" y="80" width="200" height="160" as="geometry" />
        </mxCell>
        <mxCell id="Rr432nF8yquImSJ2FN4J-2" value="&lt;div&gt;&lt;b&gt;Management&lt;/b&gt;&lt;/div&gt;&lt;div&gt;&lt;ul&gt;&lt;li&gt;Führung&lt;/li&gt;&lt;li&gt;Zielsetzung&lt;/li&gt;&lt;li&gt;Organisation&lt;/li&gt;&lt;li&gt;Planung&lt;/li&gt;&lt;li&gt;Steuerung&lt;/li&gt;&lt;li&gt;...&lt;/li&gt;&lt;/ul&gt;&lt;/div&gt;" style="rounded=1;whiteSpace=wrap;html=1;align=left;spacingLeft=40;spacingTop=9;fillColor=#dae8fc;strokeColor=#6c8ebf;" parent="1" vertex="1">
          <mxGeometry x="400" y="80" width="200" height="160" as="geometry" />
        </mxCell>
        <mxCell id="Rr432nF8yquImSJ2FN4J-3" value="" style="shape=cross;whiteSpace=wrap;html=1;align=left;fillColor=#fff2cc;strokeColor=#d6b656;" parent="1" vertex="1">
          <mxGeometry x="300" y="120" width="80" height="80" as="geometry" />
        </mxCell>
        <mxCell id="Rr432nF8yquImSJ2FN4J-4" value="" style="html=1;shadow=0;dashed=0;align=center;verticalAlign=middle;shape=mxgraph.arrows2.arrow;dy=0.6;dx=40;notch=0;fillColor=#fff2cc;strokeColor=#d6b656;" parent="1" vertex="1">
          <mxGeometry x="620" y="135" width="100" height="50" as="geometry" />
        </mxCell>
        <mxCell id="Rr432nF8yquImSJ2FN4J-5" value="Projekt-&lt;br&gt;management" style="text;html=1;fillColor=#d5e8d4;align=center;verticalAlign=middle;whiteSpace=wrap;rounded=1;strokeColor=#82b366;fontStyle=1" parent="1" vertex="1">
          <mxGeometry x="740" y="120" width="120" height="80" as="geometry" />
        </mxCell>
      </root>
    </mxGraphModel>
  </diagram>
</mxfile>
